<svg width="206" height="55" viewBox="0 0 206 55" fill="none" xmlns="http://www.w3.org/2000/svg">
<circle cx="27.9" cy="27.4999" r="6.6" fill="url(#paint0_linear_16746_99)"/>
<path d="M41.1 27.5C41.1 34.7902 35.1902 40.7 27.9 40.7C20.6098 40.7 14.7 34.7902 14.7 27.5" stroke="#333333" stroke-width="1.46667"/>
<path d="M27.9 40.7C20.6098 40.7 14.7 34.7902 14.7 27.5C14.7 20.2099 20.6098 14.3 27.9 14.3" stroke="#333333" stroke-width="1.46667"/>
<path d="M27.9 46.5667C38.4302 46.5667 46.9667 38.0302 46.9667 27.5C46.9667 16.9698 38.4302 8.43335 27.9 8.43335" stroke="#333333" stroke-width="1.1"/>
<path d="M8.83334 27.5C8.83334 38.0302 17.3698 46.5667 27.9 46.5667C38.4302 46.5667 46.9667 38.0302 46.9667 27.5" stroke="#333333" stroke-width="1.1"/>
<path d="M27.9 51.3334C14.7372 51.3334 4.06667 40.6629 4.06667 27.5001C4.06667 14.3373 14.7372 3.66675 27.9 3.66675" stroke="#333333" stroke-width="0.733333"/>
<path d="M4.06667 27.5001C4.06667 14.3373 14.7372 3.66675 27.9 3.66675C41.0628 3.66675 51.7333 14.3373 51.7333 27.5001" stroke="#333333" stroke-width="0.733333"/>
<circle cx="27.5333" cy="3.66659" r="1.46667" fill="white" stroke="#333333" stroke-width="0.733333"/>
<circle cx="27.5333" cy="51.3333" r="1.46667" fill="white" stroke="#333333" stroke-width="0.733333"/>
<circle cx="27.5333" cy="46.5667" r="1.46667" fill="white" stroke="#333333" stroke-width="0.733333"/>
<circle cx="27.5333" cy="8.43343" r="1.46667" fill="white" stroke="#333333" stroke-width="0.733333"/>
<circle cx="14.7" cy="26.7667" r="1.46667" fill="white" stroke="#333333" stroke-width="0.733333"/>
<circle cx="41.1" cy="26.7667" r="1.46667" fill="white" stroke="#333333" stroke-width="0.733333"/>
<path d="M68.5086 17.0213V39H65.6391V17.0213H68.5086ZM73.0604 27.9949C73.0604 25.8506 73.5439 23.9271 74.5109 22.2243C75.478 20.5004 76.7919 19.155 78.4526 18.188C80.1344 17.221 81.9949 16.7375 84.034 16.7375C86.4305 16.7375 88.5223 17.3156 90.3091 18.4718C92.096 19.628 93.3994 21.2678 94.2193 23.391H90.7821C90.1725 22.0666 89.2896 21.047 88.1333 20.3323C86.9981 19.6175 85.6317 19.2601 84.034 19.2601C82.4994 19.2601 81.1224 19.6175 79.9031 20.3323C78.6839 21.047 77.7273 22.0666 77.0336 23.391C76.3399 24.6944 75.993 26.229 75.993 27.9949C75.993 29.7397 76.3399 31.2743 77.0336 32.5987C77.7273 33.9021 78.6839 34.9112 79.9031 35.6259C81.1224 36.3407 82.4994 36.6981 84.034 36.6981C85.6317 36.6981 86.9981 36.3512 88.1333 35.6575C89.2896 34.9427 90.1725 33.9231 90.7821 32.5987H94.2193C93.3994 34.701 92.096 36.3302 90.3091 37.4864C88.5223 38.6216 86.4305 39.1892 84.034 39.1892C81.9949 39.1892 80.1344 38.7162 78.4526 37.7702C76.7919 36.8032 75.478 35.4683 74.5109 33.7655C73.5439 32.0627 73.0604 30.1391 73.0604 27.9949ZM105.342 39.2838C104.017 39.2838 102.829 39.0631 101.778 38.6216C100.727 38.1591 99.8969 37.5284 99.2872 36.7296C98.6776 35.9097 98.3412 34.9742 98.2781 33.9231H101.242C101.326 34.785 101.726 35.4893 102.441 36.0359C103.176 36.5824 104.133 36.8557 105.31 36.8557C106.403 36.8557 107.265 36.614 107.896 36.1305C108.526 35.647 108.842 35.0373 108.842 34.3015C108.842 33.5447 108.505 32.9876 107.833 32.6303C107.16 32.2519 106.119 31.884 104.711 31.5266C103.429 31.1902 102.377 30.8539 101.558 30.5175C100.759 30.1602 100.065 29.6451 99.4764 28.9724C98.9088 28.2787 98.625 27.3747 98.625 26.2605C98.625 25.3776 98.8878 24.5682 99.4133 23.8325C99.9389 23.0967 100.685 22.5186 101.652 22.0981C102.619 21.6567 103.723 21.4359 104.963 21.4359C106.876 21.4359 108.421 21.9194 109.599 22.8865C110.776 23.8535 111.407 25.1779 111.491 26.8597H108.621C108.558 25.9557 108.19 25.2304 107.517 24.6839C106.866 24.1373 105.983 23.864 104.869 23.864C103.839 23.864 103.019 24.0847 102.409 24.5262C101.799 24.9677 101.495 25.5458 101.495 26.2605C101.495 26.8281 101.673 27.3011 102.031 27.6795C102.409 28.0369 102.872 28.3312 103.418 28.5625C103.986 28.7727 104.764 29.0144 105.752 29.2877C106.992 29.6241 108.001 29.9604 108.779 30.2968C109.557 30.6121 110.219 31.0956 110.765 31.7473C111.333 32.399 111.627 33.2504 111.648 34.3015C111.648 35.2475 111.386 36.0989 110.86 36.8557C110.334 37.6125 109.588 38.2117 108.621 38.6531C107.675 39.0736 106.582 39.2838 105.342 39.2838ZM131.758 21.7197V39H128.888V36.4458C128.342 37.3287 127.574 38.0225 126.586 38.527C125.619 39.0105 124.547 39.2523 123.37 39.2523C122.024 39.2523 120.816 38.979 119.743 38.4324C118.671 37.8648 117.82 37.0239 117.189 35.9097C116.58 34.7956 116.275 33.4396 116.275 31.8419V21.7197H119.113V31.4635C119.113 33.1663 119.544 34.4802 120.406 35.4052C121.268 36.3092 122.445 36.7611 123.937 36.7611C125.472 36.7611 126.681 36.2881 127.564 35.3421C128.447 34.3961 128.888 33.0192 128.888 31.2113V21.7197H131.758ZM140.206 24.9046C140.773 23.9166 141.614 23.0967 142.728 22.445C143.863 21.7723 145.177 21.4359 146.67 21.4359C148.204 21.4359 149.592 21.8038 150.832 22.5396C152.094 23.2754 153.082 24.316 153.796 25.6614C154.511 26.9858 154.869 28.5309 154.869 30.2968C154.869 32.0416 154.511 33.5973 153.796 34.9637C153.082 36.3302 152.094 37.3918 150.832 38.1486C149.592 38.9054 148.204 39.2838 146.67 39.2838C145.198 39.2838 143.895 38.958 142.76 38.3063C141.646 37.6336 140.794 36.8032 140.206 35.8151V47.1987H137.336V21.7197H140.206V24.9046ZM151.936 30.2968C151.936 28.9934 151.673 27.8582 151.148 26.8912C150.622 25.9242 149.907 25.1884 149.003 24.6839C148.12 24.1793 147.143 23.9271 146.071 23.9271C145.02 23.9271 144.042 24.1898 143.138 24.7154C142.255 25.2199 141.54 25.9662 140.994 26.9543C140.468 27.9213 140.206 29.046 140.206 30.3283C140.206 31.6317 140.468 32.7774 140.994 33.7655C141.54 34.7325 142.255 35.4788 143.138 36.0043C144.042 36.5089 145.02 36.7611 146.071 36.7611C147.143 36.7611 148.12 36.5089 149.003 36.0043C149.907 35.4788 150.622 34.7325 151.148 33.7655C151.673 32.7774 151.936 31.6212 151.936 30.2968ZM162.249 24.9046C162.816 23.9166 163.657 23.0967 164.771 22.445C165.906 21.7723 167.22 21.4359 168.713 21.4359C170.247 21.4359 171.635 21.8038 172.875 22.5396C174.137 23.2754 175.125 24.316 175.839 25.6614C176.554 26.9858 176.912 28.5309 176.912 30.2968C176.912 32.0416 176.554 33.5973 175.839 34.9637C175.125 36.3302 174.137 37.3918 172.875 38.1486C171.635 38.9054 170.247 39.2838 168.713 39.2838C167.241 39.2838 165.938 38.958 164.803 38.3063C163.689 37.6336 162.837 36.8032 162.249 35.8151V47.1987H159.379V21.7197H162.249V24.9046ZM173.979 30.2968C173.979 28.9934 173.716 27.8582 173.191 26.8912C172.665 25.9242 171.95 25.1884 171.046 24.6839C170.163 24.1793 169.186 23.9271 168.114 23.9271C167.063 23.9271 166.085 24.1898 165.181 24.7154C164.298 25.2199 163.583 25.9662 163.037 26.9543C162.511 27.9213 162.249 29.046 162.249 30.3283C162.249 31.6317 162.511 32.7774 163.037 33.7655C163.583 34.7325 164.298 35.4788 165.181 36.0043C166.085 36.5089 167.063 36.7611 168.114 36.7611C169.186 36.7611 170.163 36.5089 171.046 36.0043C171.95 35.4788 172.665 34.7325 173.191 33.7655C173.716 32.7774 173.979 31.6212 173.979 30.2968ZM184.291 15.6653V39H181.422V15.6653H184.291ZM204.799 21.7197L194.393 47.1356H191.429L194.835 38.8108L187.866 21.7197H191.051L196.474 35.7205L201.835 21.7197H204.799Z" fill="#333333"/>
<defs>
<linearGradient id="paint0_linear_16746_99" x1="27.9" y1="20.8999" x2="27.9" y2="34.0999" gradientUnits="userSpaceOnUse">
<stop stop-color="#439B24"/>
<stop offset="1" stop-color="#246F09"/>
</linearGradient>
</defs>
</svg>
